<svg id="eRtaEZ85K1r1" xmlns="http://www.w3.org/2000/svg" xmlns:xlink="http://www.w3.org/1999/xlink" viewBox="0 0 270 180" shape-rendering="geometricPrecision" text-rendering="geometricPrecision">
<style>
#eRtaEZ85K1r19_tr {animation: eRtaEZ85K1r19_tr__tr 2000ms linear infinite normal forwards}@keyframes eRtaEZ85K1r19_tr__tr { 0% {transform: translate(2.59921px,-3.19436px) rotate(3.478385deg)} 20% {transform: translate(2.59921px,-3.19436px) rotate(3.478385deg)} 35% {transform: translate(2.59921px,-3.19436px) rotate(6.906364deg)} 50% {transform: translate(2.59921px,-3.19436px) rotate(6.906364deg)} 65% {transform: translate(2.59921px,-3.19436px) rotate(3.478385deg)} 100% {transform: translate(2.59921px,-3.19436px) rotate(3.478385deg)}} #eRtaEZ85K1r26_to {animation: eRtaEZ85K1r26_to__to 2000ms linear infinite normal forwards}@keyframes eRtaEZ85K1r26_to__to { 0% {transform: translate(40.281238px,49.391661px)} 20% {transform: translate(40.281238px,49.391661px)} 40% {transform: translate(48.811273px,56.026832px)} 65% {transform: translate(40.281238px,49.391661px)} 100% {transform: translate(40.281238px,49.391661px)}} #eRtaEZ85K1r33_tr {animation: eRtaEZ85K1r33_tr__tr 2000ms linear infinite normal forwards}@keyframes eRtaEZ85K1r33_tr__tr { 0% {transform: translate(-6.43095px,7.14196px) rotate(-9.999988deg)} 10% {transform: translate(-6.43095px,7.14196px) rotate(-9.999988deg)} 25% {transform: translate(-6.43095px,7.14196px) rotate(-7.870585deg)} 40% {transform: translate(-6.43095px,7.14196px) rotate(-7.870585deg)} 65% {transform: translate(-6.43095px,7.14196px) rotate(-9.999988deg)} 100% {transform: translate(-6.43095px,7.14196px) rotate(-9.999988deg)}} #eRtaEZ85K1r34_ts {animation: eRtaEZ85K1r34_ts__ts 2000ms linear infinite normal forwards}@keyframes eRtaEZ85K1r34_ts__ts { 0% {transform: translate(46.467719px,48.238171px) scale(1,1)} 15% {transform: translate(46.467719px,48.238171px) scale(1,1)} 40% {transform: translate(46.467719px,48.238171px) scale(1.184748,1.184748)} 80% {transform: translate(46.467719px,48.238171px) scale(1,1)} 100% {transform: translate(46.467719px,48.238171px) scale(1,1)}} #eRtaEZ85K1r45_to {animation: eRtaEZ85K1r45_to__to 2000ms linear infinite normal forwards}@keyframes eRtaEZ85K1r45_to__to { 0% {transform: translate(46.349518px,44.55086px)} 10% {transform: translate(46.349518px,44.55086px)} 45% {transform: translate(46.349518px,48.228123px)} 85% {transform: translate(46.349518px,44.55086px)} 100% {transform: translate(46.349518px,44.55086px)}}
</style>
<g clip-path="url(#eRtaEZ85K1r51)"><g><g transform="translate(91.782 36.325)"><g transform="translate(41.999 129.501)"><path d="M0.943,-1.556c6.353,0,11.521-5.168,11.521-11.521c0,0,0-14.090999,0-14.090999c0-6.352001-5.168-11.521-11.521-11.521s-11.521,5.168999-11.521,11.521c0,0,0,14.090999,0,14.090999c0,6.353,5.168,11.521,11.521,11.521Zm0-32.132999c3.595,0,6.521,2.925999,6.521,6.521c0,0,0,14.090999,0,14.090999c0,3.596-2.926,6.521-6.521,6.521-3.596,0-6.521-2.925-6.521-6.521c0,0,0-.613,0-.613.042.004.083.013.126.013c0,0,4.035,0,4.035,0c.828,0,1.5-.672,1.5-1.5s-.672-1.5-1.5-1.5c0,0-4.035,0-4.035,0-.043,0-.084.009001-.126.011999c0,0,0-5.779999,0-5.779999.042.004.083.013001.126.013001c0,0,4.035,0,4.035,0c.828,0,1.5-.672001,1.5-1.5s-.672-1.5-1.5-1.5c0,0-4.035,0-4.035,0-.043,0-.084.008999-.126.012998c0,0,0-1.748998,0-1.748998c0-3.595001,2.925-6.521,6.521-6.521ZM27.167999,-11.103c-1.849998-1.114-3.896-2.05-6.078998-2.811c0,0,0-4.184,0-4.184c0-1.381-1.119002-2.5-2.5-2.5s-2.5,1.119-2.5,2.5c0,0,0,6.619,0,6.619c0,8.44-6.866001,15.307-15.307001,15.307-8.44,0-15.307-6.867-15.307-15.307c0,0,0-6.619,0-6.619c0-1.381-1.12-2.5-2.5-2.5-1.381,0-2.5,1.119-2.5,2.5c0,0,0,3.674,0,3.674-2.890001,1-5.621,2.325-8.118,3.992-10.535001,7.035-13.876001,17.485-14.012998,17.927c0,0,4.775997,1.482,4.775997,1.482.028-.091,2.936001-9.189,12.014002-15.251c1.708999-1.141,3.549999-2.097,5.484998-2.878C-18.316,0.128,-10.976,7.513,-1.719,8.658c0,0,0,6.94,0,6.94s-2.964,0-2.964,0c-1.38,0-2.499,1.118999-2.499,2.5s1.119,2.5,2.499,2.5c0,0,11.003,0,11.003,0c1.381,0,2.5-1.119,2.5-2.5s-1.119-2.5-2.5-2.5c0,0-3.038,0-3.038,0s0-6.94,0-6.94c9.091-1.124,16.321001-8.27,17.586-17.317c1.316999.534,2.553,1.136,3.719999,1.839C29.917,-3.612,33.868999,1.488,37.027,9.228c0,0,4.628998-1.889,4.628998-1.889C38.07,-1.45,33.466999,-7.31,27.167999,-11.103Z" fill="#fff"/></g><g transform="translate(78.988 27.124)"><path d="" fill-opacity="0" stroke="#fff" stroke-width="5" stroke-linecap="round" stroke-miterlimit="10"/></g></g><g transform="translate(91.782 36.325)"><g transform="translate(41.999 129.501)"><path d="M0.943,-1.556c6.353,0,11.521-5.168,11.521-11.521c0,0,0-14.090999,0-14.090999c0-6.352001-5.168-11.521-11.521-11.521s-11.521,5.168999-11.521,11.521c0,0,0,14.090999,0,14.090999c0,6.353,5.168,11.521,11.521,11.521Zm0-32.132999c3.595,0,6.521,2.925999,6.521,6.521c0,0,0,14.090999,0,14.090999c0,3.596-2.926,6.521-6.521,6.521-3.596,0-6.521-2.925-6.521-6.521c0,0,0-.613,0-.613.042.004.083.013.126.013c0,0,4.035,0,4.035,0c.828,0,1.5-.672,1.5-1.5s-.672-1.5-1.5-1.5c0,0-4.035,0-4.035,0-.043,0-.084.009001-.126.011999c0,0,0-5.779999,0-5.779999.042.004.083.013001.126.013001c0,0,4.035,0,4.035,0c.828,0,1.5-.672001,1.5-1.5s-.672-1.5-1.5-1.5c0,0-4.035,0-4.035,0-.043,0-.084.008999-.126.012998c0,0,0-1.748998,0-1.748998c0-3.595001,2.925-6.521,6.521-6.521ZM27.167999,-11.103c-1.849998-1.114-3.896-2.05-6.078998-2.811c0,0,0-4.184,0-4.184c0-1.381-1.119002-2.5-2.5-2.5s-2.5,1.119-2.5,2.5c0,0,0,6.619,0,6.619c0,8.44-6.866001,15.307-15.307001,15.307-8.44,0-15.307-6.867-15.307-15.307c0,0,0-6.619,0-6.619c0-1.381-1.12-2.5-2.5-2.5-1.381,0-2.5,1.119-2.5,2.5c0,0,0,3.674,0,3.674-2.890001,1-5.621,2.325-8.118,3.992-10.535001,7.035-13.876001,17.485-14.012998,17.927c0,0,4.775997,1.482,4.775997,1.482.028-.091,2.936001-9.189,12.014002-15.251c1.708999-1.141,3.549999-2.097,5.484998-2.878C-18.316,0.128,-10.976,7.513,-1.719,8.658c0,0,0,6.94,0,6.94s-2.964,0-2.964,0c-1.38,0-2.499,1.118999-2.499,2.5s1.119,2.5,2.499,2.5c0,0,11.003,0,11.003,0c1.381,0,2.5-1.119,2.5-2.5s-1.119-2.5-2.5-2.5c0,0-3.038,0-3.038,0s0-6.94,0-6.94c9.091-1.124,16.321001-8.27,17.586-17.317c1.316999.534,2.553,1.136,3.719999,1.839C29.917,-3.612,33.868999,1.488,37.027,9.228c0,0,4.628998-1.889,4.628998-1.889C38.07,-1.45,33.466999,-7.31,27.167999,-11.103Z" fill="#fff"/></g><g transform="translate(78.988 27.124)"><path d="" fill-opacity="0" stroke="#fff" stroke-width="5" stroke-linecap="round" stroke-miterlimit="10"/></g></g><g transform="matrix(.997978 0.063552-.063552 0.997978 176.935 35.8531)"><g transform="translate(18.123 79.629)"><path d="M9.539,-18.594c0,0-24.729,19.396-24.729,19.396-.307.24-.348.689-.09.98c0,0,6.711,7.596,6.711,7.596s-8.716999,7.757-8.716999,7.757c-.587.523001.036998,1.459.743999,1.117001c0,0,13.982-6.762001,13.982-6.762001.374-.181.498-.652.262-.994c0,0-5.247-7.589-5.247-7.589s25.417999-10.932,25.417999-10.932-8.333999-10.569-8.333999-10.569Z" fill="#fff"/></g><g transform="translate(50.603 42.675)"><path d="M0,-42.424c-23.43,0-42.424999,18.994-42.424999,42.425C-42.424999,23.431,-23.43,42.424,0,42.424c23.431,0,42.424999-18.993,42.424999-42.423C42.424999,-23.43,23.431,-42.424,0,-42.424Zm.803,71.567c-15.698,0-28.424-12.725001-28.424-28.422c0-15.698,12.726-28.423999,28.424-28.423999c15.697,0,28.423999,12.725999,28.423999,28.423999C29.226999,16.417999,16.5,29.143,0.803,29.143Z" fill="#fff"/></g><g id="eRtaEZ85K1r19_tr" transform="translate(2.59921,-3.19436) rotate(3.478385)"><g transform="translate(0,0)"><g transform="translate(67.859 44.96)"><path d="M-3.807,0c0,2.103,1.705,3.807,3.808,3.807C2.103,3.807,3.807,2.103,3.807,0s-1.704-3.807-3.806-3.807c-2.103,0-3.808,1.704-3.808,3.807Z" fill="#fff"/></g><g transform="translate(48.44 28.655)"><path d="M-5.494,-1.138c0,0,10.988,2.276,10.988,2.276m-3.603-6.42c0,0-3.782,10.564-3.782,10.564" fill-opacity="0" stroke="#fff" stroke-width="3" stroke-linecap="round" stroke-linejoin="round"/></g><g transform="translate(51.108 45.636)"><path d="M-10.152,-8.121c0,0,20.304,16.242,20.304,16.242" fill-opacity="0" stroke="#fff" stroke-width="3" stroke-linecap="round" stroke-miterlimit="10"/></g><g id="eRtaEZ85K1r26_to" transform="translate(40.281238,49.391661)"><g transform="scale(0.928657,0.928657) translate(0,0)"><path d="M5.278,-7.903c0,0-3.482,5.027-3.51,5.176m8.438-1.013c0,0-6.556,15.136-14.479,8.302-5.933-5.117-.934-11.305,6.002-15.958" fill-opacity="0" stroke="#fff" stroke-width="3" stroke-linecap="round" stroke-linejoin="round"/></g></g></g></g></g><g transform="matrix(.997807-.066186 0.066187 0.997807-.750694 44.2956)"><g transform="translate(75.156 79.629)"><path d="M-9.54,-18.594c0,0,24.731,19.396,24.731,19.396.306.24.347.689.089.98c0,0-6.712,7.596-6.712,7.596s8.717999,7.757,8.717999,7.757c.587.523001-.036998,1.459-.743999,1.117001c0,0-13.982-6.762001-13.982-6.762001-.374-.181-.498-.652-.262-.994c0,0,5.247-7.589,5.247-7.589s-25.419001-10.932-25.419001-10.932s8.334001-10.569,8.334001-10.569Z" fill="#fff"/></g><g transform="translate(42.675 42.675)"><path d="M-0.001,-42.424c-23.43,0-42.424999,18.994-42.424999,42.425c0,23.43,18.994999,42.423,42.424999,42.423c23.431,0,42.426999-18.993,42.426999-42.423c0-23.431-18.995999-42.425-42.426999-42.425Zm-.802,71.567c-15.697999,0-28.423999-12.725001-28.423999-28.422c0-15.698,12.726-28.423999,28.423999-28.423999s28.423001,12.725999,28.423001,28.423999c0,15.696999-12.725001,28.422-28.423001,28.422Z" fill="#fff"/></g><g id="eRtaEZ85K1r33_tr" transform="translate(-6.43095,7.14196) rotate(-9.999988)"><g transform="translate(0,0)"><g id="eRtaEZ85K1r34_ts" transform="translate(46.467719,48.238171) scale(1,1)"><g transform="translate(0,0)"><path d="M3.899,-7.396c0,0,1.917,3.397,1.917,3.397c1.975,3.228.958,7.446-2.27,9.42-3.229,1.975-7.446.959-9.421-2.27c0,0-1.916-3.396-1.916-3.396" fill-opacity="0" stroke="#fff" stroke-width="3" stroke-linecap="round" stroke-miterlimit="10"/></g></g><g transform="matrix(.866025-.5 0.5 0.866025 49.782 30.367)"><path d="M3.807,0C3.807,2.102,2.102,3.807,0,3.807s-3.807-1.705-3.807-3.807c0-2.103,1.705-3.807,3.807-3.807s3.807,1.704,3.807,3.807Z" fill="#fff"/></g><g transform="matrix(.866025-.5 0.5 0.866025 25.419 44.96)"><path d="M3.807,0c0,2.103-1.705,3.807-3.808,3.807-2.102,0-3.806-1.704-3.806-3.807s1.704-3.807,3.806-3.807c2.103,0,3.808,1.704,3.808,3.807Z" fill="#fff"/></g></g></g></g><g transform="translate(89.475 61.601)"><g transform="translate(44.158 43.179)"><path d="M-9.571,30.677999C-22.504,26.532,-31.658001,14.193,-31.164,-0.051c.595999-17.182,15.010001-30.628001,32.193-30.032c17.182.596,30.629001,15.009,30.033,32.192-.447,12.887-8.667,23.674001-19.997,28.009" fill-opacity="0" stroke="#fff" stroke-width="5" stroke-miterlimit="10"/></g></g><g transform="translate(89.475 61.601)"><g transform="translate(0 0.505909)"><g id="eRtaEZ85K1r45_to" transform="translate(46.349518,44.55086)"><g transform="scale(0.994865,0.994865) translate(1.705741,1.235082)"><path d="M-16.653999,-1.697c0,0,29.322999-9.691,29.322999-9.691s3.984,16.107-8.707,19.497c-12.279,3.279-19.851-3.319-20.615999-9.806Z" fill="#fff"/></g></g><g transform="matrix(.9842 0 0 0.9842 36.0925 31.4436)"><path d="M5.905,0.555c-.307,3.261-3.199,5.657-6.46,5.351-3.262-.307-5.657-3.2-5.351-6.461.307-3.261,3.2-5.657,6.461-5.35c3.261.306,5.657,3.199,5.35,6.46Z" fill="#fff"/></g><g transform="matrix(1.0158 0 0 1.0158 57.8595 27.3816)"><path d="M3.407,0.32C3.23,2.202,1.561,3.584,-0.32,3.406c-1.881-.176-3.263-1.845-3.086-3.727.176-1.881,1.844-3.263,3.726-3.086c1.881.177,3.264,1.846,3.087,3.727Z" fill="#fff"/></g></g></g></g><clipPath id="eRtaEZ85K1r51"><rect width="270" height="200" rx="0" ry="0"/></clipPath></g></svg>
