<svg id="ema64ORKIZN1" xmlns="http://www.w3.org/2000/svg" xmlns:xlink="http://www.w3.org/1999/xlink" viewBox="0 0 270 180" shape-rendering="geometricPrecision" text-rendering="geometricPrecision">
<style>
#ema64ORKIZN25_ts {animation: ema64ORKIZN25_ts__ts 2000ms linear infinite normal forwards}@keyframes ema64ORKIZN25_ts__ts { 0% {transform: translate(5.83165px,5.29189px) scale(0.8963,0.8963)} 25% {transform: translate(5.83165px,5.29189px) scale(0.8963,0.8963)} 50% {transform: translate(5.83165px,5.29189px) scale(0.92869,0.92869)} 70% {transform: translate(5.83165px,5.29189px) scale(0.8963,0.8963)} 100% {transform: translate(5.83165px,5.29189px) scale(0.8963,0.8963)}} #ema64ORKIZN39_tr {animation: ema64ORKIZN39_tr__tr 2000ms linear infinite normal forwards}@keyframes ema64ORKIZN39_tr__tr { 0% {transform: translate(77.3074px,97.2925px) rotate(-2.03718deg)} 15% {transform: translate(77.3074px,97.2925px) rotate(-2.03718deg)} 45% {transform: translate(77.3074px,97.2925px) rotate(-7.346231deg)} 75% {transform: translate(77.3074px,97.2925px) rotate(-2.03718deg)} 100% {transform: translate(77.3074px,97.2925px) rotate(-2.03718deg)}}
</style>
<g clip-path="url(#ema64ORKIZN45)"><g><g transform="matrix(.996867 0.079097-.079097 0.996867 33.4739 37.0752)"><g transform="translate(66.691 112.436)"><path d="M-38.379002,-27.624001c0,0-11.990997,17.275001-14.132999,45.544001M-29.812,-7.707c0,0-2.284001,16.632,2.069999,28.803001M-1.21,-12.848c0,0-.709,16.531,2.251,23.93" fill-opacity="0" stroke="#fff" stroke-width="5" stroke-linecap="round" stroke-linejoin="round"/></g></g><g transform="matrix(.988785 0.149349-.149349 0.988785 26.0207 26.1393)"><g transform="translate(70.026 40.167)"><path d="M-36.469002,15.61C-33.789001,-2.518,-18.986,-15.61,-0.113,-15.61c17.777,0,32.670999,12.342,36.582002,28.924" fill-opacity="0" stroke="#fff" stroke-width="5" stroke-linecap="round" stroke-linejoin="round"/></g><g transform="translate(38.703 75.399)"><path d="M-12.831,-12.292c3.046-3.253,6.935-6.167,6.935-6.167s6.662.49,13.106,11.615C14.846,6.337,10.956,15.87,10.956,15.87s-12.348,2.116-12.348,2.116c-1.358.472-9.833-2.516-13.454-13.33" fill-opacity="0" stroke="#fff" stroke-width="5" stroke-linecap="round" stroke-linejoin="round"/></g><g transform="translate(34.13 80.266)"><path d="M-6.128,-14.023c1.616.288,6.539,4.363,9.707,10.083C7.541,3.213,8.314,10.458,5.306,12.24c-3.008,1.783-9.658-.571-13.62-7.724" fill-opacity="0" stroke="#fff" stroke-width="5" stroke-linecap="round" stroke-linejoin="round"/></g><g transform="translate(55.893 47.587)"><path d="M-32.318001,-7.684c-5.165001,7.283-10.807998,13.755-10.912998,17.883-.162003,6.301999,6.228001,14.44,10.194,20.926999c1.165999,1.906002,3.100998,3.961003,7.530998.266001c1.792-1.156999,2.343001-3.517999,1.261-5.354999C-28.181,19.354,-37.643002,3.616,-34.948002,-2.26c15.056002-32.827002,51.133001-32.795,51.745003-32.636999c3.353998.862999,13.316999,1.59,26.596001,12.507" fill-opacity="0" stroke="#fff" stroke-width="5" stroke-linecap="round" stroke-linejoin="round"/></g><g transform="translate(78.548 84.003)"><path d="M29.705,-14.876c.079,15.439-19.25,29.752-37.898,29.752-8.036,0-15.481-1.701-21.590001-5.996" fill-opacity="0" stroke="#fff" stroke-width="5" stroke-linecap="round" stroke-linejoin="round"/></g><g transform="translate(104.411 63.776)"><path d="M2.171,-10.726C0.351,-4.016,-9.525,5.089,-9.285,6.049c.428,1.714,5.496,4.677,5.496,4.677s6.46-2.534,13.314-14.098" fill-opacity="0" stroke="#fff" stroke-width="5" stroke-linecap="round" stroke-linejoin="round"/></g><g transform="translate(107.048 43.645)"><path d="M-13.921,-12.581c0,0,6.032-3.926999,9.245-3.926999c3.212,0,16.883,11.529999,18.597,25.163999c0,0-2.644,3.783-6.748,7.851999" fill-opacity="0" stroke="#fff" stroke-width="5" stroke-linecap="round" stroke-linejoin="round"/></g></g><g transform="matrix(.997041-.076872 0.076872 0.997041 31.5192 51.945)"><g transform="matrix(.8 0 0 0.8 55.902 26.147)"><path d="M-21.874001,7.711c0,0,10.650001,2.207,10.650001,2.207m-3.493-6.224c0,0-3.665,10.241-3.665,10.241M-4.529,-0.939c0,0,9.06,1.878,9.06,1.878M1.559,-4.355c0,0-3.118,8.71-3.118,8.71" fill-opacity="0" stroke="#fff" stroke-width="3" stroke-linecap="round" stroke-linejoin="round"/></g><g id="ema64ORKIZN25_ts" transform="translate(5.83165,5.29189) scale(0.8963,0.8963)"><g transform="translate(0,0)"><g transform="translate(59.114 53.29)"><path d="M-23.771,4.288c0,0,13.135-20.844,39.154-23.306999c0,0,8.388,22.021999-4.782,29.910999-13.571,8.126999-26.983,2.069-34.372-6.604Z" fill-opacity="0" stroke="#fff" stroke-width="3" stroke-linecap="round" stroke-linejoin="round"/></g><g transform="translate(68.804 51.761)"><path d="M-19.042,13.67c0,0,.393-9.815,14.848-8.174m-2.498-.785c0,0,.964-9.422,13.384-8.138" fill-opacity="0" stroke="#fff" stroke-width="3" stroke-linecap="round" stroke-linejoin="round"/></g><g transform="translate(56.421 50.458)"><path d="M-7.881,16.407c.863-4.967,5.267-9.101,10.278-9.649.93-.101,1.928-.11,2.699-.641.622-.428.988-1.126,1.383-1.769c2.643-4.295,7.688-6.995,12.726999-6.814.412001-4.683-.087-9.445-1.462-13.941C8.256,-13.446,-1.485,-10.353,-9.207,-4.093c-1.992,1.615-3.819,3.422-5.543,5.318-1.354,1.489-4.388,4.013-4.559,6.145-.309,3.859,8.522,7.793,11.428,9.037Z" fill="#fff"/></g></g></g></g><g transform="matrix(.856206-.516635 0.516635 0.856206 81.4048 39.3568)"><g transform="translate(7.173 2.555)" opacity="0.000006"><path d="M-2.839,-2.773c1.678-1.522,4.548-2.032,6.687-1.287c2.016.703,3.075,3.23,2.401,5.256-.673,2.027-2.797,3.386-4.932,3.438-.972.024-1.934-.187-2.903-.285-1.837-.185-3.564.226-5.337.456.099-2.376,2.357-6.011,4.084-7.578Z" fill="#fff"/></g><g transform="translate(28.298 29.137)" opacity="0"><path d="M0.103,-4.719c2.247-.291,4.894.931,6.223,2.765c1.253,1.729.677,4.407-1.034,5.686-1.71,1.278-4.23,1.18-6.011.003-.813-.537-1.481-1.26-2.22-1.893-1.401-1.202-3.053-1.852-4.64-2.676c1.439-1.893,5.369-3.586,7.682-3.885Z" fill="#fff"/></g><g transform="translate(42.215 3.486)" opacity="0.000006"><path d="M-0.96,-4.144c2.109-.826,4.973-.281,6.707,1.177c1.635,1.374,1.725,4.112.374,5.766s-3.818,2.17-5.832,1.459c-.918-.324-1.742-.864-2.612-1.3-1.651-.827-3.41-1.056-5.15-1.472.938-2.185,4.341-4.78,6.513-5.63Z" fill="#fff"/></g></g><g id="ema64ORKIZN39_tr" transform="translate(77.3074,97.2925) rotate(-2.03718)"><g transform="translate(0,0)"><g transform="translate(54.743 39.858)"><path d="M-27.576603,-5.154007C-13.315602,-5.328007,10.477,-14.474,10.477,-14.474s11.136001-7.707999,20.558999-10.279c9.422001-2.57,14.990002-2.605,14.990002-2.605s6.424999,6.459999-2.998001,8.601c-9.423,2.142-12.850001,4.283-12.850001,4.283s.072001,5.14.072001,5.14m8.915001-6.634c0,0,3.890999,4.747,2.641998,9.851-.939998,3.836-11.993999,8.031-17.99,7.602s-41.84752,15.599215-67.117521,11.317216" fill-opacity="0" stroke="#fff" stroke-width="5" stroke-linecap="round" stroke-linejoin="round"/></g></g></g><g transform="translate(147.047 46.147)"><g transform="translate(60.743 66.952)"><path d="M57.993,-66.689003c0,0-11.479,0-11.479,0-.181,0-.358002.022003-.528999.059006-.256001-.049004-.518002-.072006-.784001-.039002c0,0-102.304001,12.912998-102.304001,12.912998-1.228.154999-2.158001,1.187001-2.184997,2.425c0,0-1.174004,44.152166-1.174004,44.152166-.030998,1.381,1.063004,2.524,2.443001,2.555.02.001.038002.001.056999.001c1.354,0,2.468003-1.083,2.498001-2.445c0,0,1.126-41.997164,1.126-41.997164s97.347999-12.288002,97.347999-12.288002-.163997,91.317002-.163997,91.317002-94.940003,0-94.940003,0c-1.380996,0-2.5,1.118999-2.5,2.5s1.119004,2.5,2.5,2.5c0,0,27.144001,0,27.144001,0s-.104999,14.911998-.104999,14.911998-17.909001,0-17.909001,0c-1.376999,0-2.494999,1.112999-2.5,2.491002c0,0-.042999,11.826-.042999,11.826-.001999.664001.259998,1.303001.729,1.774002.469002.469993,1.105999.735,1.771.735c0,0,66.955999,0,66.955999,0c1.381001,0,2.5-1.119003,2.5-2.5c0,0,0-29.238002,0-29.238002s18.892001,0,18.892001,0c.394001,0,.761001-.100003,1.092998-.262001c0,0,11.559002,0,11.559002,0c1.381001,0,2.5-1.119,2.5-2.5c0,0,0-96.391003,0-96.391003c0-1.379997-1.118999-2.5-2.5-2.5ZM-40.473,54.875999c0,0,17.900999,0,17.900999,0s11.304001,0,11.304001,0c1.381,0,2.5-1.118999,2.5-2.5s-1.119-2.5-2.5-2.5c0,0-8.787,0-8.787,0s.104999-14.911998.104999-14.911998s29.660001,0,29.660001,0s0,26.737999,0,26.737999-50.208001,0-50.208001,0s.025001-6.826001.025001-6.826001ZM21.448999,61.702c0,0-6.738999,0-6.738999,0s0-26.737999,0-26.737999s6.738999,0,6.738999,0s0,26.737999,0,26.737999Zm34.044001-32c0,0-7.646999,0-7.646999,0s.163997-91.390999.163997-91.390999s7.483002,0,7.483002,0s0,91.390999,0,91.390999Z" fill="#fff"/></g></g></g><clipPath id="ema64ORKIZN45"><rect width="270" height="200" rx="0" ry="0"/></clipPath></g></svg>
