<svg id="equ0RpY6z4U1" xmlns="http://www.w3.org/2000/svg" xmlns:xlink="http://www.w3.org/1999/xlink" viewBox="0 0 280 190" shape-rendering="geometricPrecision" text-rendering="geometricPrecision">
<style>
#equ0RpY6z4U13_to {animation: equ0RpY6z4U13_to__to 2000ms linear infinite normal forwards}@keyframes equ0RpY6z4U13_to__to { 0% {transform: translate(115.766498px,55.966422px)} 15% {transform: translate(115.766498px,55.966422px)} 50% {transform: translate(126.344018px,47.038858px)} 85% {transform: translate(115.766498px,55.966422px)} 100% {transform: translate(115.766498px,55.966422px)}} #equ0RpY6z4U20_tr {animation: equ0RpY6z4U20_tr__tr 2000ms linear infinite normal forwards}@keyframes equ0RpY6z4U20_tr__tr { 0% {transform: translate(-64.6975px,-11.3058px) rotate(0deg)} 20% {transform: translate(-64.6975px,-11.3058px) rotate(0deg)} 55% {transform: translate(-64.6975px,-11.3058px) rotate(-4.267484deg)} 85% {transform: translate(-64.6975px,-11.3058px) rotate(0deg)} 100% {transform: translate(-64.6975px,-11.3058px) rotate(0deg)}} #equ0RpY6z4U25_tr {animation: equ0RpY6z4U25_tr__tr 2000ms linear infinite normal forwards}@keyframes equ0RpY6z4U25_tr__tr { 0% {transform: translate(58.9946px,3.91947px) rotate(0deg)} 10% {transform: translate(58.9946px,3.91947px) rotate(0deg)} 45% {transform: translate(58.9946px,3.91947px) rotate(30.107501deg)} 70% {transform: translate(58.9946px,3.91947px) rotate(0deg)} 100% {transform: translate(58.9946px,3.91947px) rotate(0deg)}}
</style>
<g clip-path="url(#equ0RpY6z4U30)"><g><g transform="translate(4.71873 23.75)"><g transform="translate(84.593 121.797)"><path d="M-13.964,-10.31c-5.387-1.238-10.821-2.682-16.347001-2.521-.792.024-1.622.073-2.299.486-.709999.433-1.140998,1.2-1.492,1.954-1.591,3.426-4.175999,8.886-3.64,12.625C-16.777,9.193,16.943001,12.992,37.636002,5.26c.642997-3.48-1.813-13.365-6.058003-16.686-1.415998-1.108-7.559-.878-9.754999-.908" fill-opacity="0" stroke="#fff" stroke-width="4" stroke-linecap="round" stroke-miterlimit="10"/></g></g><g transform="translate(-.281273 23.75)"><g transform="translate(84.593 121.797)"><path d="M25.870001,-15.551C24.645,-17.698999,20.514,-24.226,18.305,-24.329c-2.595-.121001-5.97-.144-8.7-.102999C14.22,-28.993,13.308,-34.277,9.749,-39.701c-3.56-5.424999-16.12-12.630001-16.12-12.630001c2.866,6.336002,3.555,16.566002-4.412,21.394001-3.358,2.035-16.360999,3.76-17.174001,5.130001C-29.115,-23.857,-28.382,-14.733,-25.225,-12.787m35.581,4.345c7.581-.295,16.946-1.503,15.863999-6.442-.010999-.05-.135999-.292-.349998-.667" fill-opacity="0" stroke="#fff" stroke-width="4" stroke-linecap="round" stroke-miterlimit="10"/></g></g><g transform="translate(7.355 16.005)"><g transform="translate(83.564 90.218)"><path d="M62.791401,-11.409741c4.860851-33.929569,8.272602-53.156261,8.272602-53.156261s-12.886002-1.442001-12.886002-1.442001c-1.094001,2.485004-3.207,4.321003-5.856002,4.723003-3.945.598999-7.703999-2.185001-8.956997-6.379001c0,0-11.662003-1.304001-11.662003-1.304001C30.674,-66.262001,28.469,-64.234001,25.667,-63.808998c-4.091999.620998-7.994-2.393005-9.094-6.852005c0,0-11.183956-1.25-11.183956-1.25-.862,3.123001-3.225044,5.538002-6.312044,6.006004-4.361.662003-8.505956-2.806-9.273956-7.75c0,0-10.554043-1.18-10.554043-1.18-.780001,3.284996-3.201001,5.856003-6.397002,6.340996-4.372999.663002-8.528997-2.822998-9.281999-7.786995-.015-.104004-.021-.208-.034001-.312004c0,0-10.059997-1.125-10.059997-1.125s-20.112797,143.686073-20.112797,143.686073s127.810043,11.258049,127.810043,11.258049-5.484249-22.090164-4.797249-41.060165" fill-opacity="0" stroke="#fff" stroke-width="5" stroke-linecap="round" stroke-linejoin="round"/></g></g><g id="equ0RpY6z4U13_to" transform="translate(115.766498,55.966422)"><g transform="rotate(-3.711906) scale(0.903943,0.903943) translate(0,0)"><g transform="translate(63.595 44.77)"><path d="M41.764999,-43.77c-2.875999-.75-5.982998-.203999-8.527999,1.5c0,0-70.714001,51.101-70.714001,51.101s-25.868,35.689-25.868,35.689s42.494001-2.680999,42.494001-2.680999s78.856001-48.432001,78.856001-48.432001C60.903999,-8.45,62.743,-11.592,62.923,-15c.422001-7.993999-5.349998-24.639999-21.158001-28.77ZM37.764,-0.029c0,0-5.825001,3.577-5.825001,3.577.492001-9.102-5.629-17.722-12.33-23.269001-.623998-.517-2.491998-2.008999-4.599999-3.209999c0,0,5.179-3.742,5.179-3.742c2.059999.677,6.385999,3.219,10.601,7.911001C34.137001,-15.036,39.129002,-7.94,37.764,-0.029Zm-64.16,23.505999c.334999-1.779998.860001-5.08-.558-7.890999-1.203-2.385-2.97-3.912-4.583001-4.879c0,0,43.827001-31.673,43.827001-31.673c2.288,1.074999,5.907001,3.5,9.453,7.446c3.396999,3.781,8.492001,11.032,6.912001,19.086c0,0-47.515002,29.182001-47.515002,29.182001.329001-4.043001-1.283998-8.292002-7.535999-11.271002ZM-34.124001,12.724c1.414002.645,3.322001,1.892,4.492001,4.213c1.039,2.06.496,4.900999.233999,6.267-.174999.913001-.355999,1.855999.583,2.438.125.077.368.197001.706002.348C-24.612,27.559,-20.413,30.375999,-22.323,36.875c0,0-.085001.050999-.085001.050999s-19.689999,1.243999-19.689999,1.243999c-1.122001-4.581997-3.206001-6.675999-4.942001-7.624998c0,0,12.916-17.821,12.916-17.821Zm92.056-27.989c-.097,1.803-1.076,3.471-2.583,4.436c0,0-14.353001,8.815-14.353001,8.815.333001-8.984-5.717998-17.467001-12.339998-22.948-.724001-.6-3.121-2.517-5.628-3.763c0,0,13.025001-9.413,13.025001-9.413c1.349999-.890999,2.967999-1.181,4.447998-.793999c13.889,3.628998,17.686001,18.835998,17.431,23.666999Z" fill="#fff"/></g></g></g><g transform="translate(63.185 74.08)"><g transform="translate(51.382 22.005)"><path d="" fill-opacity="0" stroke="#fff" stroke-width="3" stroke-linecap="round" stroke-miterlimit="10"/></g></g><g transform="translate(50.34 51.867)"><g id="equ0RpY6z4U20_tr" transform="translate(-64.6975,-11.3058) rotate(0)"><g transform="scale(1.09635,1.09635) translate(0,0)"><g transform="translate(75.502 24.549)"><path d="M-0.018,4.086c-2.256-.01-4.078-1.847-4.067-4.104.009-2.256,1.847-4.078,4.104-4.067c2.256.01,4.077,1.847,4.067,4.104-.01,2.256-1.848,4.077-4.104,4.067Z" fill="#fff"/></g><g transform="matrix(.983317 0 0 0.983317 80.7326 30.1962)"><path d="M-7.679,-6.263c-1.443-.319-2.83-.891-4.079-1.681-1.104-.699-2.133-1.615-2.62-2.827s-.3-2.761.705-3.596c.78-.646,1.914-.755,2.879-.447.966.308,1.778.983,2.434,1.755c1.399,1.644,2.163,3.721,2.901,5.751m2.857,2.954c1.454.267,2.859.789,4.135,1.535c1.128.658,2.19,1.537,2.72,2.731s.398,2.749-.577,3.618c-.756.675-1.884.824-2.86.551-.976-.274-1.813-.919-2.496-1.667-1.457-1.594-2.295-3.643-3.104-5.644" fill-opacity="0" stroke="#fff" stroke-width="3" stroke-linecap="round" stroke-miterlimit="10"/></g></g></g><g id="equ0RpY6z4U25_tr" transform="translate(58.9946,3.91947) rotate(0)"><g transform="scale(0.752606,0.752606) translate(0,0)"><g transform="translate(18.866 15.639)"><path d="M-4.003,-0.818c.452-2.211,2.61-3.636,4.821-3.185c2.211.452,3.637,2.61,3.185,4.821-.451,2.211-2.611,3.637-4.821,3.186-2.211-.452-3.636-2.611-3.185-4.822Z" fill="#fff"/></g><g transform="matrix(.983317 0 0 0.983317 24.5442 11.7196)"><path d="M-7.666,6.378c-.546,1.373-1.333,2.65-2.314,3.756-.867.977-1.937,1.846-3.211,2.132-1.275.286-2.774-.147-3.436001-1.273-.514-.874-.438-2.011.021-2.914.459002-.904,1.255001-1.597,2.123001-2.12c1.847-1.118,4.021-1.538,6.142-1.939m3.54-2.247c.595-1.353,1.427-2.601,2.447-3.671.902-.946,2.001-1.776,3.285-2.016c1.285-.241,2.767.246,3.388,1.395.482.891.367,2.026-.124,2.912-.492.886-1.312,1.551-2.198,2.044-1.886,1.05-4.073,1.392-6.208,1.718" fill-opacity="0" stroke="#fff" stroke-width="3" stroke-linecap="round" stroke-miterlimit="10"/></g></g></g></g></g><clipPath id="equ0RpY6z4U30"><rect width="270" height="200" rx="0" ry="0"/></clipPath></g></svg>
