<svg id="eeQ0PtrVZkq1" xmlns="http://www.w3.org/2000/svg" xmlns:xlink="http://www.w3.org/1999/xlink" viewBox="0 0 270 180" shape-rendering="geometricPrecision" text-rendering="geometricPrecision">
<style>
#eeQ0PtrVZkq6_tr {animation: eeQ0PtrVZkq6_tr__tr 2000ms linear infinite normal forwards}@keyframes eeQ0PtrVZkq6_tr__tr { 0% {transform: translate(7.897844px,8.524732px) rotate(0deg)} 30% {transform: translate(7.897844px,8.524732px) rotate(0deg)} 55% {transform: translate(7.897844px,8.524732px) rotate(5.780914deg)} 75% {transform: translate(7.897844px,8.524732px) rotate(0deg)} 100% {transform: translate(7.897844px,8.524732px) rotate(0deg)}} #eeQ0PtrVZkq32_tr {animation: eeQ0PtrVZkq32_tr__tr 2000ms linear infinite normal forwards}@keyframes eeQ0PtrVZkq32_tr__tr { 0% {transform: translate(98.228087px,62.721585px) rotate(-7.257371deg)} 15% {transform: translate(98.228087px,62.721585px) rotate(-7.257371deg)} 45% {transform: translate(98.228087px,62.721585px) rotate(3.334621deg)} 85% {transform: translate(98.228087px,62.721585px) rotate(-7.257371deg)} 100% {transform: translate(98.228087px,62.721585px) rotate(-7.257371deg)}} #eeQ0PtrVZkq32_ts {animation: eeQ0PtrVZkq32_ts__ts 2000ms linear infinite normal forwards}@keyframes eeQ0PtrVZkq32_ts__ts { 0% {transform: scale(1.000003,1.000003)} 15% {transform: scale(1.000003,1.000003)} 45% {transform: scale(1.073587,1.073587)} 85% {transform: scale(1.000003,1.000003)} 100% {transform: scale(1.000003,1.000003)}}
</style>
<g clip-path="url(#eeQ0PtrVZkq35)"><g><g transform="translate(35.311 62.061)"><g transform="matrix(.998966-.04547 0.04547 0.998966 76.342162 46.9732)"><g id="eeQ0PtrVZkq6_tr" transform="translate(7.897844,8.524732) rotate(0)"><path d="M15.357,33.688999C11.583,26.035999,9.041,-6.272,4.79,-10.747c-2.721-.015-7.632-.043-7.632-.043-3.148-5.742-.57-12.085999-.57-12.085999-1.863.496999-7.732,1.243999-9.36.889999-4.489999-.978001-3.591001-7.06-3.119-7.990999.643-1.269001,18.959-3.712,22.768-2.419001s10.384999,6.980999,10.384999,6.980999" transform="translate(-7.897844,-8.524732)" fill-opacity="0" stroke="#fff" stroke-width="5" stroke-linecap="round" stroke-linejoin="round"/></g></g><g transform="translate(36.952 83.272)"><path d="M48.437,-29.076c-6.512001-4.199002-13.863998-8.939999-21.547001-7.937C23.538,-36.575001,2.389,-33.895,-2.666,-31.834999c-11.991,4.889-22.961001,35.432999-23.661,56.238998c0,0,13.293,2.16,41.275-3.904998c0,0-5.133,8.239,5.035,9.567998c0,0-7.685,3.314002-7.685,3.314002s-3.777,5.632999,2.58,6.304c6.355999.670998,15.028-2.179,15.028-2.179s2.879-15.813-.269001-21.555001C26.488001,10.21,-11.666,9.187,-11.666,9.187m1.201.007c.014-2.544,9.552-14.586,12.117-18.388c0,0,5.051,6.953,6.938,10.78" fill-opacity="0" stroke="#fff" stroke-width="5" stroke-linecap="round" stroke-linejoin="round"/></g></g><g transform="translate(122.1 39.129)"><g transform="translate(63.52 152.612)"><path d="M1.069,-3.696c-1.335-.371-2.709.408-3.079,1.737c0,0-.795,2.854-.795,2.854-.371,1.33.407,2.709,1.737,3.079.225.062.45.093.672.093c1.095,0,2.099-.725,2.406-1.83c0,0,.796-2.854.796-2.854.371-1.33-.407-2.709-1.737-3.079Z" fill="#fff"/></g><g transform="translate(54.292 80.085)"><path d="M0.65,-1.977c0,0-.009,0-.009,0-.398.001-.532-.008-.653-.019-.159-.013-.306-.026-.637-.027c0,0-.004,0-.004,0-1.102,0-1.998.894-2,1.996-.002,1.106.892,2.002,1.996,2.004.156,0,.224.006.298.013.176.014.368.033.906.033c0,0,.112,0,.112,0c1.104-.005,1.996-.904,1.991-2.009-.005-1.101-.899-1.991-2-1.991Z" fill="#fff"/></g><g transform="translate(52.891 71.239)"><path d="M-23.830999,16.131001c0,0,.878999.295999.878999.295999c9.552,3.23,19.466,4.579001,28.051,4.579001c7.21,0,13.481999-.952,17.814-2.542c0,0,.796999-.293001.796999-.293001s.159-.834.159-.834C24.32,14.967,22.867001,8.372,19.774,5.925c-.759001-.601-1.677-.682-2.578001-.63-.009998-.193-.021-.386-.063-.584C17.07,4.418,13.824,-1.978,11.062,-2.122c-.707-.037-1.537-.064-2.416-.08.877-2.056.878-4.833-1.447-8.419-2.232-3.442-9.267-7.591-10.061-8.053c0,0-4.013-2.332001-4.013-2.332001s1.889,4.24,1.889,4.24C-3.821,-14.153,-2.76,-8.528,-7.083,-5.942c-.813.487-3.443,1.069-5.363,1.494-3.662999.811-4.846999,1.111-5.393001,2.019-.708,1.178-.715,4.467.161002,6.994-.118001.001-.235001-.005-.354001-.003-.647001.015-1.398.067-2.113.497-.775.469-1.196,1.21-1.475001,1.804c0,0-.063999.136-.063999.136-1.049999,2.226-2.636,5.591-2.274,8.213c0,0,.127001.919001.127001.919001Zm4.861-7.854001c0,0,.063999-.137.063999-.137.191999-.407.288999-.496.309-.51.104999-.056.503-.065.635-.068c2.759-.091,5.45.582,8.314,1.269c0,0,1.031.245,1.031.245.807.19,1.613-.31,1.803-1.116.191-.806-.309-1.614-1.116-1.804c0,0-1.019-.243-1.019-.243-1.705-.409-3.448-.817-5.224-1.077c0,0-.003-.003-.003-.003-.895-.559-1.401-4.215-1.159-5.475.698-.248,2.312-.605,3.538-.877c3.035-.672,5.111-1.164,6.255-1.849c3.95-2.363,5.033-6.622,4.453-10.627c2.245,1.531,4.787,3.489,5.77,5.006c2.56,3.947,1.384,5.922.075,7.203c0,0-2.669,2.608-2.669,2.608s3.732-.036,3.732-.036c1.707-.018,3.597.014,4.961.081.867.482,2.858,3.503,3.435,4.599-.001.085-.032.132-.075.188-.261.334-1.611,1.442-7.991,1.655-.828.028-1.476.721-1.449,1.549.027.812.692,1.45,1.498,1.45.017,0,.034,0,.051-.001c4.467-.148,7.419-.746,9.135-1.841.381-.018.759999-.049,1.130999-.094C16.976,8.318,17.747,8.226,17.913,8.278c1.744,1.38,2.973,5.534,3.052,7.686-11.518,3.786-29.761,1.849-41.953001-2.048.184-1.748,1.304001-4.125,2.018002-5.639Z" fill="#fff"/></g><g transform="translate(56.137 75.809)"><path d="M53.974998,-53.106998c0,0-9.523998-2.949002-9.523998-2.949002-.006-.001999-.013-.001999-.02-.005001-.134999-.041-.272-.068001-.411999-.083-.063-.007999-.124001-.008999-.186001-.013-.053001,0-.105999-.014-.16-.010998c0,0-13.602001.214-13.602001.214s2.438999-16.685001,2.438999-16.685001c.104-.716003-.105999-1.442001-.577999-1.990997s-1.157999-.866005-1.882-.870003c0,0-10.708999-.058998-10.708999-.058998s-.014,0-.014,0c-1.216,0-2.257.875999-2.463999,2.075996c0,0-3.054001,17.785-3.054001,17.785s-20.412.321003-20.412.321003s3.051-16.047005,3.051-16.047005c.139-.728996-.053-1.482994-.525-2.055999-.473-.572998-1.174-.906998-1.916-.910996c0,0-9.258-.051002-9.258-.051002s-.013,0-.013,0c-1.181999,0-2.204.828003-2.447,1.985c0,0-3.602999,17.132-3.602999,17.132-.013001.060002-.011002.119-.020001.179001c0,0-11.566002.181999-11.566002.181999-1.158996.018002-2.153999.830002-2.403999,1.961003c0,0-20.292,92.107998-20.292,92.107998-.291,1.324001.524002,2.638,1.838002,2.964c0,0,12.141998,3.018002,12.141998,3.018002s-3.112999,14.880997-3.112999,14.880997c-.283001,1.351001.584,2.675003,1.935001,2.958999.173001.036003.344998.053002.514.053002c1.159001,0,2.197998-.810002,2.445-1.988999c0,0,2.097999-10.026001,2.097999-10.026001.044999.013001.086998.035.133.046002c0,0,5.614,1.343998,5.614,1.343998s-2.038999,9.382999-2.038999,9.382999c-.293,1.350002.562999,2.681,1.911998,2.974998.180001.038002.357001.057.533001.057c1.152001,0,2.187001-.798996,2.442-1.968998c0,0,2.016001-9.280999,2.016001-9.280999s21.064999,5.044999,21.064999,5.044999c.047.012001.092.008003.139.017002c0,0-2.703,14.003998-2.703,14.003998-.262,1.355003.626,2.666999,1.982,2.928001.16.030998.319.044998.476.044998c1.174,0,2.221-.831001,2.452-2.026001c0,0,3.521-18.234997,3.521-18.234997s9.068,2.917,9.068,2.917-1.7,9.473004-1.7,9.473004c-.243,1.358993.66,2.658996,2.02,2.902999.149.025994.297.038994.444.038994c1.187,0,2.24-.848999,2.458-2.058998c0,0,1.581-8.811001,1.581-8.811001s11.429001,3.675003,11.429001,3.675003c.002998.001.004999.001.007.001999c0,0,.029999.009999.029999.009999.139.045002.281.074001.425001.094001.010999.001999.021999.006001.035.008c0,0,10.802997,1.330997,10.802997,1.330997.104.012001.207001.018006.309002.018006c1.223999,0,2.289002-.897004,2.471001-2.138005c0,0,16.522999-113.116996,16.522999-113.116996.178001-1.218003-.557-2.385003-1.734002-2.75ZM21.433001,-70.547997c0,0,5.713998.031998,5.713998.031998s-2.139999,14.641998-2.139999,14.641998-6.111.096001-6.111.096001s2.537001-14.769997,2.537001-14.769997ZM-13.238,-69.431c0,0,4.213.023003,4.213.023003s-2.684,14.110996-2.684,14.110996-4.517.070999-4.517.070999s2.988-14.204998,2.988-14.204998ZM-35.897999,33.152c0,0-1.854999,7.743-1.854999,7.743s-12.436001-3.09-12.436001-3.09s19.342998-87.800998,19.342998-87.800998s71.633-1.126004,71.633-1.126004-16.9,108.913002-16.9,108.913002-25.246999-8.119999-25.246999-8.119999s1.868-7.798999,1.868-7.798999c.154-.645001.046-1.324002-.301-1.890004-.346-.563999-.903-.967998-1.549-1.123996c0,0-31.542998-7.555003-31.542998-7.555003-.645001-.154998-1.324002-.045999-1.888001.300002-.565002.347-.970001.903999-1.125,1.548999Zm1.89,13.578c0,0,2.389999-9.981999,2.389999-9.981999s26.681,6.390999,26.681,6.390999-2.39,9.980999-2.39,9.980999-26.680999-6.389999-26.680999-6.389999ZM34.591999,59.618c0,0-5.816999-.716999-5.816999-.716999s16.962999-109.324001,16.962999-109.324001s4.714001,1.459999,4.714001,1.459999-15.860001,108.581001-15.860001,108.581001Z" fill="#fff"/></g></g><g transform="translate(158.836 82.784)"><g transform="translate(3.448 10.298)"><path d="" fill-opacity="0" stroke="#fff" stroke-width="3" stroke-linecap="round" stroke-miterlimit="10"/></g></g><g transform="matrix(1 0.000429-.000429 1 26.7556 35.3297)"><g transform="translate(39.829 40.103)"><path d="M27.313,11.223c-4.176001,9.79-13.924,16.380001-25.676,16.316-15.669-.087-28.966-11.972-28.880999-27.357C-27.159,-15.201,-14.388,-27.603001,1.281,-27.517c11.752.065,21.796,7.135999,26.048,17.157" fill-opacity="0" stroke="#fff" stroke-width="5" stroke-linecap="round" stroke-linejoin="round"/></g><g transform="translate(31.911 30.887)"><path d="M6.784,0.037c-.021,3.747-3.076,6.767-6.822,6.746-3.747-.02-6.767-3.074-6.747-6.821.021-3.746,3.075-6.767,6.821-6.746c3.747.02,6.769,3.074,6.748,6.821Z" fill="#fff"/></g><g transform="translate(31.911 30.887)"><path d="M22.884001,-2.306c-.008002,1.506-1.236,2.721-2.742001,2.712-1.506-.008-2.719999-1.236-2.712-2.742s1.236-2.72,2.742001-2.712c1.505998.009,2.719999,1.236,2.712,2.742Z" fill="#fff"/></g><g transform="translate(42.723 40.905)"><path d="M9.616,-5.419c0,0-10.875,4.312-19.232,10.838" fill-opacity="0" stroke="#fff" stroke-width="3" stroke-linecap="round" stroke-linejoin="round"/></g><g transform="translate(45.04 50.298)"><path d="M-6.313,-7.134c0,0,3.951,4.89,4.089,4.959m1.462-6.864c0,0,11.272,8.764,3.03,14.09-6.172,3.988-10.422-2.144-12.778-9.615" fill-opacity="0" stroke="#fff" stroke-width="3" stroke-linecap="round" stroke-linejoin="round"/></g></g><g id="eeQ0PtrVZkq32_tr" transform="translate(98.228087,62.721585) rotate(-7.257371)"><g id="eeQ0PtrVZkq32_ts" transform="scale(1.000003,1.000003)"><g transform="translate(-0.250997,-59.041993)"><g transform="translate(22.955 24)"><path d="M-22.704,35.042c0,0,9.506-5.903,9.506-5.903.484-.299999.66-.986.379-1.476c0,0-3.258-5.688999-3.258-5.688999-.285-.497002-.099001-1.193001.396-1.487001c0,0,9.41-6.333,9.41-6.333s-4.446-8.328-4.446-8.328-9.296,12.678-9.296,12.678c-.456.302-.625.951-.372,1.432001c0,0,4.006,7.633999,4.006,7.633999.216.41.126999.957-.210001,1.298c0,0-6.114999,6.174-6.114999,6.174ZM5.891,-20.909c-10.085-2.841-20.897,4.217001-24.151,15.764-3.253,11.548,2.285,23.211999,12.369,26.054C4.194,23.75,15.006,16.691999,18.259001,5.144C21.513,-6.404,15.975,-18.068001,5.891,-20.909Zm-7.85,36.307c-1.759,0-3.19-1.432-3.19-3.19c0-1.76,1.431-3.19,3.19-3.19s3.19,1.43,3.19,3.19c0,1.758-1.431,3.19-3.19,3.19ZM7.734,-3.875C7.133,-0.037,4.65,1.153,3.005,1.942c-.342.164-.66.283-.95.391-1.117.416-1.579.588-1.579,3.081c0,1.276-1.039,2.315-2.316,2.315s-2.315-1.039-2.315-2.315c0-5.425,2.452-6.476,4.422-7.319.252-.109.5-.215.738-.329c1.405-.675,1.93-.927,2.155-2.358.522-3.331-.314-4.447-1.295-5.158-.565-.41-1.211-.463-1.818-.153-1.174.6-1.732,1.22-1.732,3.121c0,1.277-1.039,2.315-2.315,2.315-1.277,0-2.315-1.038-2.315-2.315c0-3.461,1.352-5.763,4.257-7.245c2.173-1.108,4.655-.91,6.64.526c2.856,2.071,3.857,5.13,3.152,9.626Z" fill="#fff"/></g></g></g></g></g><clipPath id="eeQ0PtrVZkq35"><rect width="270" height="200" rx="0" ry="0"/></clipPath></g></svg>
