<svg id="e2E6QdluYI31" xmlns="http://www.w3.org/2000/svg" xmlns:xlink="http://www.w3.org/1999/xlink" viewBox="0 0 270 180" shape-rendering="geometricPrecision" text-rendering="geometricPrecision">
<style>
#e2E6QdluYI312_tr {animation: e2E6QdluYI312_tr__tr 2000ms linear infinite normal forwards}@keyframes e2E6QdluYI312_tr__tr { 0% {transform: translate(127.472573px,121.321305px) rotate(0.474234deg)} 30% {transform: translate(127.472573px,121.321305px) rotate(0.474234deg)} 55% {transform: translate(127.472573px,121.321305px) rotate(-7.357082deg)} 75% {transform: translate(127.472573px,121.321305px) rotate(0.474234deg)} 100% {transform: translate(127.472573px,121.321305px) rotate(0.474234deg)}} #e2E6QdluYI312_ts {animation: e2E6QdluYI312_ts__ts 2000ms linear infinite normal forwards}@keyframes e2E6QdluYI312_ts__ts { 0% {transform: scale(1,1)} 30% {transform: scale(1,1)} 55% {transform: scale(1.05084,1.05084)} 75% {transform: scale(1,1)} 100% {transform: scale(1,1)}} #e2E6QdluYI331_ts {animation: e2E6QdluYI331_ts__ts 2000ms linear infinite normal forwards}@keyframes e2E6QdluYI331_ts__ts { 0% {transform: translate(50.068px,48.015px) scale(1,1)} 20% {transform: translate(50.068px,48.015px) scale(1,1)} 50% {transform: translate(50.068px,48.015px) scale(1.166623,1.166623)} 80% {transform: translate(50.068px,48.015px) scale(1,1)} 100% {transform: translate(50.068px,48.015px) scale(1,1)}}
</style>
<g clip-path="url(#e2E6QdluYI333)"><g><g transform="translate(33.156 101.044)"><g transform="translate(54.081 41.117)"><path d="M-38.831001,28.867001C-38.441002,15.942,-39.737,-3.161,-34.969002,-10.801c7.736002-12.397,33.558103-16.83743,33.558103-16.83743c11.764-.381,22.795899,6.621329,29.233899,9.100329c1.691.651001,5.177,2.855,7.023001,2.704c1.912998-.158,3.763569-3.848131,5.389572-4.813131" fill-opacity="0" stroke="#fff" stroke-width="5" stroke-miterlimit="10"/></g><g transform="translate(38.662 53.732)"><path d="M-8.94,14.39c0-1.679-.604-16.766,1.169-27.131.22-1.286,1.89-1.649,2.619-.567c0,0,9.681,9.91,14.696,26.073" fill-opacity="0" stroke="#fff" stroke-width="5" stroke-miterlimit="10"/></g></g><g transform="translate(161.572-1.27)"><g transform="translate(74.828 41.332)"><path d="" fill-opacity="0" stroke="#fff" stroke-width="4" stroke-linecap="round" stroke-miterlimit="10"/></g></g><g id="e2E6QdluYI312_tr" transform="translate(127.472573,121.321305) rotate(0.474234)"><g id="e2E6QdluYI312_ts" transform="scale(1,1)"><g transform="translate(-11.740267,-93.622289)"><g transform="translate(60.53 50.907)"><path d="M-25.777,6.022c-.716,0-1.351-.515-1.477-1.244-.141-.817.406-1.593,1.222-1.734c0,0,51.552-8.924,51.552-8.924.819001-.142,1.593001.406,1.733,1.221.142.817-.406,1.593-1.222,1.734c0,0-51.551,8.925-51.551,8.925-.087.015-.171999.022-.257.022Z" fill="#fff"/></g><g transform="translate(62.932 68.913)"><path d="M-25.777,6.023c-.716,0-1.351-.515-1.477-1.244-.141-.817.406-1.593,1.222-1.734c0,0,51.552-8.925,51.552-8.925.82-.143,1.593001.406,1.733,1.222.142.816-.406,1.593-1.222,1.733c0,0-51.551,8.926-51.551,8.926-.087.015-.171999.022-.257.022Z" fill="#fff"/></g><g transform="translate(66.533 86.918)"><path d="M-25.777,6.025c-.716,0-1.351-.515-1.477-1.244-.141-.817.406-1.593,1.222-1.734c0,0,51.552-8.925,51.552-8.925.817-.147,1.592.405,1.733,1.221.142.817-.406,1.593-1.222,1.734c0,0-51.551,8.926-51.551,8.926-.087.015-.171999.022-.257.022Z" fill="#fff"/></g><g transform="translate(65.256 68.87)"><path d="M55.235001,-17.613001C50.611,-30.24,45.57,-42.675999,45.52,-42.799999c0,0-.063999-.143002-.063999-.143002-.125999-.251999-1.317001-2.482998-4.312999-3.337997s-6.610001-.005001-10.727002,2.529999c0,0-1.211.743999-1.211.743999s1.885,8.569,1.885,8.569c-3.576,3.813-16.953,20.075-5.659,39.342c4.208999,7.179,9.571998,11.464999,15.952999,12.770999c0,0,5.402,24.577999,5.402,24.577999s-80.477001,9.246003-80.477001,9.246003-16.913998-93.882-16.913998-93.882s17.406998-2.816002,17.406998-2.816002c.007-.277001.009003-.552998,0-.829998-.007999-.295002-.035999-.587002-.057999-.881001-.001998-.025001-.001998-.034-.003997-.052002-.003002-.016998-.006001-.025997-.011002-.051998-.029999-.152-.054001-.306-.088001-.459-.059998-.274002-.133-.546001-.221001-.812999-.010998-.030003-.065998-.181-.097999-.272-.029-.066002-.063-.142002-.072998-.164001-.133-.268002-.293999-.515999-.453-.768002-.012001-.017997-.015003-.024997-.023002-.036998-.013001-.013001-.018997-.019001-.037998-.036999-.088002-.09-.168-.187-.257-.276001-.061001-.062-.126999-.119999-.191002-.179001c0,0-4.223.683002-4.223.683002-.583999-4.293003.601002-7.712001,2.308003-8.113002.894996-.206997,2.048999.380001,3.149997,1.625c1.319001,1.492,2.408001,3.764,2.987002,6.235c1.181999,5.043-.084002,9.315003-2.004999,9.765999-.807003.189003-1.307003.996002-1.118,1.803002.162998.691001.778999,1.157001,1.458999,1.157001.113999,0,.228998-.012001.343998-.040001c3.081001-.722,4.883002-4.509998,4.768002-9.292c0,0,16.621999-2.688999,16.621999-2.688999.001-.007.004-.014.006-.021.065-.288002.116-.576999.17-.867.004-.027001.006-.035.009-.053002.001-.003998.001-.005001.001-.009998.016-.146.033-.292.044-.438999.048-.599003.054-1.203003.002-1.803002-.011-.132-.112-.654998-.005-.101001-.025-.133999-.046-.270001-.074-.404-.055-.262001-.124-.52-.209-.772999-.038-.114002-.223-.503002.012-.015998-.056-.115002-.106-.232003-.165-.345002-.034-.063999-.076-.119999-.114-.180999c0,0-5.098.825-5.098.825-.289001-1.974002-.245-3.899002.17-5.437.432-1.604,1.197-2.646,2.099-2.858002.899-.206001,2.048.380001,3.151,1.625c1.319,1.492001,2.408,3.764,2.987,6.235001c1.182,5.042999-.084,9.314999-2.006,9.765999-.806.189003-1.306.996002-1.117,1.803001.162.692002.778,1.157002,1.459,1.157002.113,0,.229-.012001.344-.040001c3.041-.713001,4.835-4.412003,4.77-9.104c0,0,16.277-2.633999,16.277-2.633999-.004-.282002-.016-.562-.037-.842003-.012-.16-.029-.32-.043-.479-.003-.028-.005-.051998-.008-.075001-.092-.593998-.219-1.181999-.388-1.758999-.081-.274997-.171-.548-.27-.816997-.032-.084004-.065-.167004-.098-.25-.018-.034001-.096-.208-.112-.244004-.068-.139999-.147-.273998-.22-.408996c0,0-4.038.653999-4.038.653999-.563-4.262001.619-7.647003,2.316-8.045997c1.933-.445008,4.956,2.817997,6.139,7.859996c1.182,5.043-.084,9.314999-2.006,9.765999-.807.188999-1.307.996002-1.117,1.803002.162.691997.778,1.156997,1.459,1.156997.113,0,.228-.011997.344-.039997c3.095001-.725002,4.900001-4.547001,4.765001-9.36c0,0,6.500999-1.052002,6.500999-1.052002s1.374001,6.249,1.374001,6.249c1.414999-1.172001,2.878999-2.230999,4.432998-3.125c0,0-1.937999-8.814998-1.937999-8.814998s-11.140999,1.801998-11.140999,1.801998c-1.712-6.059998-5.768001-10.039002-9.497001-9.164002-3.532.829003-5.384,5.681004-4.59,11.443005c0,0-8.815,1.425999-8.815,1.425999-.728-2.704003-1.947-5.119999-3.48-6.853001-1.882-2.129002-4.04-3.039997-6.082-2.557003-2.040001.478004-3.570999,2.252003-4.312,4.995003-.530001,1.965-.605,4.296001-.244,6.699001c0,0-8.984001,1.453999-8.984001,1.453999-.734999-2.631001-1.934-4.979001-3.434-6.673001-1.884001-2.127998-4.044001-3.036999-6.082998-2.556999-3.545002.832001-5.397,5.717998-4.580002,11.511002c0,0-14.532997,2.349998-14.532997,2.349998s.125.696999.125.696999c-1.990002,1.386001-5.816002,4.194999-7.940998,6.708999c0,0-.763001.901001-.763001.901001s.212998,1.163002.212998,1.163002c6.757,36.997999,17.452999,102.640995,17.559997,103.299c0,0,.385002,2.358002.385002,2.358002s90.678002-10.610005,90.678002-10.610005s7.813-11.280998,7.813-11.280998s1.215-.139999,1.215-.139999-6.269001-28.526001-6.269001-28.526001c7.308998-.353001,13.659-4.235,15.718998-6.295c1.201999-1.203,2.697998-2.7-7.072998-29.381001Zm-14.229,70.92c0,0-83.689,9.792999-83.689,9.792999-1.958-11.970996-10.932003-66.619998-16.969001-99.810997c1.243-1.254001,2.902-2.576999,4.333-3.644001c0,0,17.538002,97.355999,17.538002,97.355999s82.816997-9.513,82.816997-9.513-4.029998,5.819-4.029998,5.819ZM43.403999,13.963C37.646,13.225,32.759998,9.496,28.882999,2.88C17.66,-16.261999,33.933998,-31.694,34.631001,-32.339001c0,0,.843997-.778999.843997-.778999s-1.743999-7.93-1.743999-7.93c3.108002-1.664002,5.081001-1.709999,6.227001-1.41c1.231999.32,1.797001,1.113998,1.901001,1.275001C50.700001,-19.386999,59.433998,5,59.189999,9.201c-1.688,1.424-8.247998,5.731-15.786,4.762Z" fill="#fff"/></g></g></g></g><g transform="translate(18.136 30.112)"><g transform="translate(47.412 46.372)"><path d="M34.912998,0.406c0,18.931-14.820999,33.466002-34.101998,33.466002-19.282001,0-35.723998-14.535002-35.723998-33.466002s15.631998-34.278002,34.913998-34.278002c19.281,0,34.911998,15.347002,34.911998,34.278002Z" fill-opacity="0" stroke="#fff" stroke-width="5" stroke-miterlimit="10"/></g></g><g transform="matrix(.956305 0.292371-.292371 0.956305 32.2874 17.4547)"><g transform="translate(29.758 36.211)"><path d="M5.951,-0.203c0,0-3.958-.82-3.958-.82s1.362-3.806,1.362-3.806c.279-.78-.127-1.639-.907-1.917-.779-.281-1.639.126-1.917.906c0,0-1.504,4.202-1.504,4.202s-4.37-.905-4.37-.905c-.811-.171-1.605.354-1.773,1.165s.353,1.606,1.164,1.774c0,0,3.958.819,3.958.819s-1.362,3.806-1.362,3.806c-.279.78.127,1.639.907,1.918.167.06.337.088.505.088.616,0,1.193-.382,1.413-.995c0,0,1.503-4.202,1.503-4.202s4.371.906,4.371.906c.102.021.205.031.305.031.697,0,1.321-.488,1.468-1.196.168-.811-.353-1.606-1.165-1.774Z" fill="#fff"/></g><g transform="translate(50.627 25.776)"><path d="M5.951,-0.203c0,0-3.958-.82-3.958-.82s1.362-3.805,1.362-3.805c.28-.78-.126-1.639-.906-1.918-.781-.28-1.639.126-1.918.907c0,0-1.504,4.201-1.504,4.201s-4.37-.905-4.37-.905c-.811-.169-1.604.354-1.773,1.165-.168.811.353,1.605,1.165,1.773c0,0,3.958.819,3.958.819s-1.363,3.807-1.363,3.807c-.279.779.127,1.638.907,1.917.167.06.337.088.505.088.616,0,1.193-.382,1.413-.995c0,0,1.503-4.202,1.503-4.202s4.371.906,4.371.906c.102.021.205.031.305.031.697,0,1.321-.488,1.468-1.196.168-.811-.353-1.605-1.165-1.773Z" fill="#fff"/></g><g transform="translate(1.354853-1.346179)"><g id="e2E6QdluYI331_ts" transform="translate(50.068,48.015) scale(1,1)"><g transform="translate(0,0)"><path d="M10.128,-13.426c0,0-.087-.392-.087-.392s-6.742,2.74-14.274,6.841c0,0,1.899,3.976,1.899,3.976c1.156,2.42.122,5.347-2.299,6.504-2.421,1.155-5.347.12-6.503-2.301c0,0-1.048-2.192-1.048-2.192-.24-.249-.478-.502-.712-.757-1.246.848-2.452,1.72-3.58,2.612c0,0,7.6,12.954,21.734,6.709c11.218-4.957,4.87-21,4.87-21Z" fill="#fff"/></g></g></g></g></g><clipPath id="e2E6QdluYI333"><rect width="270" height="200" rx="0" ry="0"/></clipPath></g></svg>
